#!OML:ASF E:\acrobat2\Project_11_07_03\Capture day 1\Session 1\Acrobat.ASF
:FULLY-SPECIFIED
:DEGREES
631
root 9.47146 18.3238 -15.9103 185.971 -1.78262 -180.227
lowerback -11.6717 1.31895 0.384632
upperback -4.47293 1.26855 -2.00649
thorax 1.92551 0.403205 -2.14083
lowerneck 1.62588 -1.97498 -1.6146
upperneck -7.07382 -2.66994 3.23657
head -2.44977 -1.45148 1.38272
rclavicle -8.24956e-015 2.10712e-014
rhumerus -45.2321 8.29179 -92.7355
rradius 27.4578
rwrist 2.36435
rhand -5.59352 -400.502
rfingers 7.12502
rthumb 20.2231 290.531
lclavicle -8.24956e-015 2.10712e-014
lhumerus -37.5912 -22.2669 95.0573
lradius 23.5349
lwrist 8.60732
lhand -1.04246 -371.038
lfingers 7.12502
lthumb 24.5915 17.4027
rfemur 3.30196 5.14168 24.2511
rtibia 0.374279
rfoot 341.799 -11.3571
rtoes 4.89143
lfemur -0.214018 -0.571662 -17.9428
ltibia 4.21574
lfoot -3.31058 -9.57383
ltoes 23.9418
632
root 9.47352 18.3239 -15.9096 186.021 -1.7383 -180.292
lowerback -11.6017 1.31115 0.210813
upperback -4.52221 1.27 -2.00663
thorax 1.83205 0.401948 -2.04371
lowerneck 1.54636 -1.97976 -1.54959
upperneck -6.97194 -2.67567 3.18068
head -2.40239 -1.45231 1.35007
rclavicle -4.47266e-015 -8.74653e-015
rhumerus -45.3233 8.28941 -92.7006
rradius 27.2541
rwrist 2.35855
rhand -5.80089 -400.192
rfingers 7.12502
rthumb 20.0237 290.82
lclavicle -4.47266e-015 -8.74653e-015
lhumerus -37.7113 -22.0984 94.9874
lradius 23.4747
lwrist 8.44096
lhand -0.967251 -370.877
lfingers 7.12502
lthumb 24.6636 17.5539
rfemur 3.25417 5.54897 24.2366
rtibia 0.372684
rfoot 341.687 -11.6789
rtoes 5.38106
lfemur -0.297832 -0.549879 -17.9848
ltibia 4.2481
lfoot -3.32891 -9.55111
ltoes 23.9022
633
root 9.47156 18.3229 -15.9106 186.053 -1.70482 -180.331
lowerback -11.5628 1.27563 0.0963538
upperback -4.50301 1.23775 -1.98913
thorax 1.82664 0.388263 -1.96541
lowerneck 1.27809 -1.96756 -1.35246
upperneck -6.8401 -2.66649 2.94762
head -2.31429 -1.44393 1.23338
rclavicle 1.54058e-014 -4.77083e-015
rhumerus -45.3084 8.41133 -92.7105
rradius 27.047
rwrist 2.30268
rhand -6.09472 -399.876
rfingers 7.12502
rthumb 19.7413 291.107
lclavicle 1.54058e-014 -4.77083e-015
lhumerus -37.7322 -22.206 94.9879
lradius 23.3295
lwrist 8.67534
lhand -1.35262 -371.296
lfingers 7.12502
lthumb 24.2942 17.1843
rfemur 3.23125 5.62828 24.1974
rtibia 0.333167
rfoot 341.779 -11.8044
rtoes 5.08465
lfemur -0.337771 -0.5109 -18.0258
ltibia 4.25468
lfoot -3.3468 -9.53698
ltoes 23.8285
634
root 9.46537 18.3219 -15.9137 186.098 -1.69088 -180.478
lowerback -11.5654 1.2886 -0.0270421
upperback -4.47518 1.27123 -2.05368
thorax 1.85657 0.405915 -1.95843
lowerneck 1.32419 -2.01947 -1.2058
upperneck -7.06685 -2.74506 2.81079
head -2.39879 -1.48787 1.17081
rclavicle 5.76476e-015 -3.53837e-014
rhumerus -45.2615 8.32501 -92.6752
rradius 26.8172
rwrist 2.34597
rhand -6.17147 -399.995
rfingers 7.12502
rthumb 19.6675 290.98
lclavicle 5.76476e-015 -3.53837e-014
lhumerus -37.7688 -22.3008 94.9484
lradius 23.2554
lwrist 8.78079
lhand -1.3768 -371.228
lfingers 7.12502
lthumb 24.271 17.2561
rfemur 3.21927 5.52631 23.9844
rtibia 0.270438
rfoot 341.922 -11.811
rtoes 4.44556
lfemur -0.359808 -0.546683 -18.2411
ltibia 4.2289
lfoot -3.29377 -9.54508
ltoes 24.3505
635
root 9.46086 18.3229 -15.9159 186.187 -1.6488 -180.613
lowerback -11.646 1.31733 -0.165242
upperback -4.4921 1.31905 -2.10229
thorax 1.88207 0.427237 -1.92411
lowerneck 1.899 -2.0222 -1.44024
upperneck -7.69204 -2.74507 3.16923
head -2.70718 -1.50542 1.34976
rclavicle 2.98177e-016 1.70955e-014
rhumerus -45.2747 8.07519 -92.5503
rradius 26.6387
rwrist 2.4582
rhand -5.95392 -400.342
rfingers 7.12502
rthumb 19.8766 290.654
lclavicle 2.98177e-016 1.70955e-014
lhumerus -37.9535 -22.1035 94.8388
lradius 23.3992
lwrist 8.65679
lhand -1.15549 -370.904
lfingers 7.12502
lthumb 24.4832 17.5513
rfemur 3.15102 5.50023 23.7879
rtibia 0.31781
rfoot 341.862 -11.7092
rtoes 4.69771
lfemur -0.443616 -0.598863 -18.4338
ltibia 4.22217
lfoot -3.29074 -9.48877
ltoes 24.5308
636
root 9.45346 18.324 -15.9194 186.248 -1.64684 -180.687
lowerback -11.7757 1.30451 -0.244575
upperback -4.47594 1.31019 -2.10614
thorax 1.96716 0.422469 -1.88308
lowerneck 1.45885 -2.13975 -1.05089
upperneck -7.21631 -2.91291 2.63114
head -2.47315 -1.57254 1.09555
rclavicle -6.4605e-015 -1.63003e-014
rhumerus -45.3225 7.9031 -92.3943
rradius 26.588
rwrist 2.59334
rhand -5.47378 -400.71
rfingers 7.12502
rthumb 20.3381 290.335
lclavicle -6.4605e-015 -1.63003e-014
lhumerus -38.1053 -21.8106 94.7134
lradius 23.5012
lwrist 8.43607
lhand -1.13779 -371.037
lfingers 7.12502
lthumb 24.5001 17.4155
rfemur 3.1178 5.28323 23.6298
rtibia 0.341563
rfoot 341.859 -11.4546
rtoes 4.77047
lfemur -0.479686 -0.625917 -18.5784
ltibia 4.20912
lfoot -3.20719 -9.45804
ltoes 24.9873
637
root 9.44171 18.3231 -15.9259 186.231 -1.72104 -180.819
lowerback -11.8199 1.2565 -0.320199
upperback -4.42204 1.26126 -2.14606
thorax 2.04479 0.400253 -1.88776
lowerneck 1.35046 -2.14733 -0.932295
upperneck -7.11807 -2.92639 2.48498
head -2.42359 -1.57616 1.02495
rclavicle -1.78906e-015 -2.34566e-014
rhumerus -45.3619 7.85596 -92.3112
rradius 26.5098
rwrist 2.67364
rhand -5.30344 -400.741
rfingers 7.12502
rthumb 20.5018 290.322
lclavicle -1.78906e-015 -2.34566e-014
lhumerus -38.1696 -21.542 94.5742
lradius 23.493
lwrist 8.14568
lhand -1.16522 -371.039
lfingers 7.12502
lthumb 24.4738 17.4171
rfemur 3.18546 4.87169 23.3681
rtibia 0.284126
rfoot 341.966 -11.1143
rtoes 4.85685
lfemur -0.396584 -0.641999 -18.8318
ltibia 4.1598
lfoot -3.04381 -9.53897
ltoes 25.8854
